<svg width="122" height="145" viewBox="0 0 122 145" fill="none" xmlns="http://www.w3.org/2000/svg">
<path fill-rule="evenodd" clip-rule="evenodd" d="M60.8038 1.66272C46.5779 1.66272 34.3503 10.3977 29.3604 22.7892L29.3577 22.796L29.3548 22.8027C29.2073 23.1468 29.1009 23.4593 28.9811 23.8107C28.8978 24.055 28.8081 24.3182 28.6938 24.6239C27.6119 28.0412 26.9489 31.6995 26.9489 35.5176V93.8829H94.7434V35.5176C94.7434 16.8035 79.5221 1.66272 60.8038 1.66272ZM96.0702 35.5176C96.0702 16.0665 80.2506 0.335938 60.8038 0.335938C46.0267 0.335938 33.3216 9.40823 28.1324 22.2869C27.9737 22.6581 27.8342 23.0641 27.6973 23.4622C27.6136 23.7059 27.5308 23.9465 27.4454 24.1743L27.4394 24.1904L27.4342 24.2068C26.3141 27.7394 25.6221 31.539 25.6221 35.5176V95.2097H96.0702V35.5176Z" fill="white"/>
<path fill-rule="evenodd" clip-rule="evenodd" d="M32.2555 24.687C32.0154 25.2472 31.8537 25.811 31.6829 26.4087L31.6794 26.4212L31.6752 26.4334C30.6769 29.3452 30.1755 32.513 30.1755 35.8558V90.4008H91.2624V35.8558C91.2624 27.4306 87.844 20.0066 82.3333 14.4958C76.8182 8.9808 69.1384 5.31232 60.7189 5.31232C47.7849 5.31232 36.7682 13.3224 32.2606 24.6746L32.2555 24.687ZM91.7599 35.8558C91.7599 27.2898 88.2826 19.7416 82.6851 14.144C77.0875 8.54648 69.2849 4.81477 60.7189 4.81477C47.5731 4.81477 36.378 12.9567 31.7982 24.491C31.5438 25.0847 31.3742 25.6784 31.2045 26.272C30.1868 29.2405 29.6779 32.4633 29.6779 35.8558V90.8984H91.7599V35.8558Z" fill="white"/>
<path d="M75.3918 68.8188H45.1141V73.0593H75.3918V68.8188Z" fill="white"/>
<path d="M81.0726 74.8505H40.3631V79.0911H81.0726V74.8505Z" fill="white"/>
<path d="M86.589 80.8822H35.0237V85.1228H86.589V80.8822Z" fill="white"/>
<path d="M91.8447 86.9158H29.6779V91.1563H91.8447V86.9158Z" fill="white"/>
<path d="M67.0784 36.5353C66.3999 37.2137 65.6366 37.7226 64.7037 38.1467C60.7175 39.9277 55.9681 38.1467 54.1871 34.1605C52.406 30.1744 54.1871 25.425 58.1732 23.6439C59.1061 23.2199 60.0391 23.0502 60.8872 22.9654C58.5973 25.2553 57.834 28.7326 59.2757 31.8706C60.7175 35.0086 63.8556 36.7897 67.0784 36.5353Z" fill="white"/>
<path d="M49.8287 139.414V126.402C49.8287 121.594 47.5864 117.118 42.1883 117.118C37.1224 117.118 35.5445 120.019 31.8904 122.423V117.284L26.9075 120.848C28.4854 120.848 28.8176 123.169 28.8176 124.412C25.6618 126.07 22.2568 127.23 18.8519 127.976C18.8519 121.843 18.3536 117.201 10.8793 117.201C7.88954 117.201 1.24572 119.688 1.24572 123.252C1.24572 124.412 1.9101 125.407 3.15582 125.407C4.48458 125.407 5.23201 124.744 5.23201 123.418C5.23201 122.589 4.89982 121.926 4.89982 121.097C4.89982 118.776 8.55392 117.864 10.381 117.864C14.5334 117.864 15.8621 122.009 15.8621 125.407V128.639C15.613 128.722 15.4469 128.722 15.1977 128.805C9.88269 129.883 0 131.375 0 138.42C0 142.315 3.48801 144.222 7.05906 144.222C10.0488 144.222 12.7894 143.393 14.8656 141.238C13.1216 142.481 10.9623 142.978 8.80307 142.978C5.81335 142.978 3.73715 141.155 3.73715 138.171C3.73715 134.524 6.39468 131.872 9.71659 130.712C11.4606 130.048 13.4537 129.717 15.2808 129.385C23.2534 127.728 28.3193 126.402 34.714 120.931C36.6241 119.273 38.3681 118.445 41.0256 118.445C45.2611 118.445 46.7559 122.092 46.7559 125.821V139.414C46.7559 141.486 46.1746 143.393 44.0153 144.056H52.6523C50.4931 143.393 49.8287 141.486 49.8287 139.414Z" fill="white"/>
<path d="M31.8891 139.418L31.8061 124.333C30.9756 124.996 29.7299 125.659 28.8164 126.156V139.418C28.8164 141.49 28.235 143.313 26.0758 144.059H34.6297C32.4705 143.313 31.8891 141.49 31.8891 139.418Z" fill="white"/>
<path d="M66.77 139.416V126.568C66.77 121.761 64.5277 117.203 59.1296 117.203C55.8077 117.203 52.6519 118.943 50.5757 121.513C52.6519 119.938 55.2264 118.529 57.8839 118.529C62.2024 118.529 63.6972 122.093 63.6972 125.905V139.416C63.6972 141.488 63.1159 143.394 60.9567 144.057H69.5936C67.3513 143.394 66.77 141.488 66.77 139.416Z" fill="white"/>
<path d="M18.8516 139.082V129.55C17.8551 129.882 16.7754 130.048 15.8619 130.296V138.999C15.8619 141.652 16.3602 144.055 19.5991 144.055C21.0109 144.055 23.004 142.895 23.4193 141.569C22.8379 142.066 22.0905 142.315 21.3431 142.315C19.433 142.397 18.8516 140.74 18.8516 139.082Z" fill="white"/>
<path d="M84.8758 117.203C77.4845 117.203 71.422 123.336 71.422 130.713C71.422 138.172 77.4845 144.223 84.9588 144.223C92.4331 144.223 98.4126 138.089 98.4126 130.713C98.4126 123.253 92.3501 117.203 84.8758 117.203ZM85.6232 143.477C78.5641 143.477 74.5778 135.934 74.5778 129.718C74.5778 124.165 77.7337 118.031 83.9622 118.031C91.0213 118.031 95.0076 125.574 95.0076 131.79C95.0906 137.261 91.8518 143.477 85.6232 143.477Z" fill="white"/>
<path d="M104.058 122.174C104.058 118.942 107.961 117.367 110.702 117.367C114.605 117.367 118.758 120.019 120.003 123.832V118.776C118.093 117.947 113.027 116.87 110.951 116.87C106.467 116.87 102.148 119.439 102.148 124.412C102.148 133.447 119.422 131.955 119.422 138.751C119.422 142.813 114.439 143.476 111.449 143.476C106.965 143.476 103.394 140.326 101.816 136.265V142.647C104.806 143.559 108.709 144.222 111.865 144.222C116.681 144.222 121.415 142.315 121.415 136.762C121.415 128.142 104.058 130.048 104.058 122.174Z" fill="white"/>
</svg>
