{
	"asset":{
		"generator":"Khronos glTF Blender I/O v3.5.30",
		"version":"2.0"
	},
	"scene":1,
	"scenes":[
		{
			"name":"Version 1 du temple"
		},
		{
			"name":"Version 2 du temple",
			"nodes":[
				0
			]
		}
	],
	"nodes":[
		{
			"mesh":0,
			"name":"Circle.002_Baked",
			"rotation":[
				0,
				-0.23372375965118408,
				0,
				0.972303032875061
			],
			"scale":[
				-91.88867950439453,
				-173.041259765625,
				-91.88867950439453
			]
		}
	],
	"materials":[
		{
			"alphaMode":"BLEND",
			"doubleSided":true,
			"name":"Circle_2",
			"pbrMetallicRoughness":{
				"baseColorTexture":{
					"index":0
				},
				"metallicFactor":0,
				"roughnessFactor":0.5
			}
		}
	],
	"meshes":[
		{
			"name":"Circle.002",
			"primitives":[
				{
					"attributes":{
						"POSITION":0,
						"TEXCOORD_0":1,
						"NORMAL":2
					},
					"indices":3,
					"material":0
				}
			]
		}
	],
	"textures":[
		{
			"sampler":0,
			"source":0
		}
	],
	"images":[
		{
			"bufferView":4,
			"mimeType":"image/png",
			"name":"Circle"
		}
	],
	"accessors":[
		{
			"bufferView":0,
			"componentType":5126,
			"count":320,
			"max":[
				1,
				0.11383932828903198,
				1
			],
			"min":[
				-1,
				-0.07639795541763306,
				-1
			],
			"type":"VEC3"
		},
		{
			"bufferView":1,
			"componentType":5126,
			"count":320,
			"type":"VEC2"
		},
		{
			"bufferView":2,
			"componentType":5126,
			"count":320,
			"type":"VEC3"
		},
		{
			"bufferView":3,
			"componentType":5123,
			"count":576,
			"type":"SCALAR"
		}
	],
	"bufferViews":[
		{
			"buffer":0,
			"byteLength":3840,
			"byteOffset":0,
			"target":34962
		},
		{
			"buffer":0,
			"byteLength":2560,
			"byteOffset":3840,
			"target":34962
		},
		{
			"buffer":0,
			"byteLength":3840,
			"byteOffset":6400,
			"target":34962
		},
		{
			"buffer":0,
			"byteLength":1152,
			"byteOffset":10240,
			"target":34963
		},
		{
			"buffer":0,
			"byteLength":1170704,
			"byteOffset":11392
		}
	],
	"samplers":[
		{
			"magFilter":9729,
			"minFilter":9987
		}
	],
	"buffers":[
		{
			"byteLength":1182096,
			"uri":"data:application/octet-stream;base64,"
		}
	]
}
