{
	"asset":{
		"generator":"Khronos glTF Blender I/O v3.5.30",
		"version":"2.0"
	},
	"scene":1,
	"scenes":[
		{
			"name":"Version 1 du temple"
		},
		{
			"name":"Version 2 du temple",
			"nodes":[
				0
			]
		}
	],
	"nodes":[
		{
			"mesh":0,
			"name":"Circle.002_Baked.001",
			"rotation":[
				0,
				-0.23372375965118408,
				0,
				0.972303032875061
			],
			"scale":[
				-91.88867950439453,
				-173.041259765625,
				-91.88867950439453
			]
		}
	],
	"meshes":[
		{
			"name":"Circle.007",
			"primitives":[
				{
					"attributes":{
						"POSITION":0,
						"TEXCOORD_0":1,
						"NORMAL":2
					},
					"indices":3
				}
			]
		}
	],
	"accessors":[
		{
			"bufferView":0,
			"componentType":5126,
			"count":344,
			"max":[
				1.0010000467300415,
				0.11383932828903198,
				1.0010000467300415
			],
			"min":[
				-1.0010000467300415,
				-0.07712780684232712,
				-1.0010000467300415
			],
			"type":"VEC3"
		},
		{
			"bufferView":1,
			"componentType":5126,
			"count":344,
			"type":"VEC2"
		},
		{
			"bufferView":2,
			"componentType":5126,
			"count":344,
			"type":"VEC3"
		},
		{
			"bufferView":3,
			"componentType":5123,
			"count":576,
			"type":"SCALAR"
		}
	],
	"bufferViews":[
		{
			"buffer":0,
			"byteLength":4128,
			"byteOffset":0,
			"target":34962
		},
		{
			"buffer":0,
			"byteLength":2752,
			"byteOffset":4128,
			"target":34962
		},
		{
			"buffer":0,
			"byteLength":4128,
			"byteOffset":6880,
			"target":34962
		},
		{
			"buffer":0,
			"byteLength":1152,
			"byteOffset":11008,
			"target":34963
		}
	],
	"buffers":[
		{
			"byteLength":12160,
			"uri":"data:application/octet-stream;base64,"
		}
	]
}
