{
	"asset":{
		"generator":"Khronos glTF Blender I/O v3.5.30",
		"version":"2.0"
	},
	"scene":0,
	"scenes":[
		{
			"name":"Scene",
			"nodes":[
				0
			]
		}
	],
	"nodes":[
		{
			"mesh":0,
			"name":"Cylinder",
			"scale":[
				0.5015289187431335,
				4.344715118408203,
				0.5015289187431335
			]
		}
	],
	"meshes":[
		{
			"name":"Cylinder",
			"primitives":[
				{
					"attributes":{
						"POSITION":0,
						"TEXCOORD_0":1,
						"NORMAL":2
					},
					"indices":3
				}
			]
		}
	],
	"accessors":[
		{
			"bufferView":0,
			"componentType":5126,
			"count":2368,
			"max":[
				1,
				0.9473684430122375,
				1
			],
			"min":[
				-1,
				-0.9473684430122375,
				-1
			],
			"type":"VEC3"
		},
		{
			"bufferView":1,
			"componentType":5126,
			"count":2368,
			"type":"VEC2"
		},
		{
			"bufferView":2,
			"componentType":5126,
			"count":2368,
			"type":"VEC3"
		},
		{
			"bufferView":3,
			"componentType":5123,
			"count":6912,
			"type":"SCALAR"
		}
	],
	"bufferViews":[
		{
			"buffer":0,
			"byteLength":28416,
			"byteOffset":0,
			"target":34962
		},
		{
			"buffer":0,
			"byteLength":18944,
			"byteOffset":28416,
			"target":34962
		},
		{
			"buffer":0,
			"byteLength":28416,
			"byteOffset":47360,
			"target":34962
		},
		{
			"buffer":0,
			"byteLength":13824,
			"byteOffset":75776,
			"target":34963
		}
	],
	"buffers":[
		{
			"byteLength":89600,
			"uri":"data:application/octet-stream;base64,"
		}
	]
}
