{
	"asset":{
		"generator":"Khronos glTF Blender I/O v3.5.30",
		"version":"2.0"
	},
	"scene":0,
	"scenes":[
		{
			"name":"Scene",
			"nodes":[
				0
			]
		}
	],
	"nodes":[
		{
			"mesh":0,
			"name":"Cube_013.001",
			"rotation":[
				0,
				0.09494371712207794,
				0,
				0.9954827427864075
			],
			"scale":[
				2.3706352710723877,
				2.3706352710723877,
				2.3706352710723877
			]
		}
	],
	"meshes":[
		{
			"name":"Cube_015.008",
			"primitives":[
				{
					"attributes":{
						"POSITION":0,
						"TEXCOORD_0":1,
						"NORMAL":2
					},
					"indices":3
				}
			]
		}
	],
	"accessors":[
		{
			"bufferView":0,
			"componentType":5126,
			"count":223,
			"max":[
				0.11687477678060532,
				0.31360387802124023,
				0.11697360873222351
			],
			"min":[
				-0.1170646995306015,
				-0.22668147087097168,
				-0.11697359383106232
			],
			"type":"VEC3"
		},
		{
			"bufferView":1,
			"componentType":5126,
			"count":223,
			"type":"VEC2"
		},
		{
			"bufferView":2,
			"componentType":5126,
			"count":223,
			"type":"VEC3"
		},
		{
			"bufferView":3,
			"componentType":5123,
			"count":1170,
			"type":"SCALAR"
		}
	],
	"bufferViews":[
		{
			"buffer":0,
			"byteLength":2676,
			"byteOffset":0,
			"target":34962
		},
		{
			"buffer":0,
			"byteLength":1784,
			"byteOffset":2676,
			"target":34962
		},
		{
			"buffer":0,
			"byteLength":2676,
			"byteOffset":4460,
			"target":34962
		},
		{
			"buffer":0,
			"byteLength":2340,
			"byteOffset":7136,
			"target":34963
		}
	],
	"buffers":[
		{
			"byteLength":9476,
			"uri":"data:application/octet-stream;base64,"
		}
	]
}
