{
	"asset":{
		"generator":"Khronos glTF Blender I/O v3.5.30",
		"version":"2.0"
	},
	"scene":0,
	"scenes":[
		{
			"name":"Scene",
			"nodes":[
				0,
				1,
				2,
				3,
				4,
				5,
				6,
				7,
				8,
				9,
				10
			]
		}
	],
	"nodes":[
		{
			"mesh":0,
			"name":"Cube.003",
			"rotation":[
				0.17168235778808594,
				-0.6834341287612915,
				-0.17286865413188934,
				0.6881565451622009
			],
			"scale":[
				1,
				3.5638539791107178,
				1
			],
			"translation":[
				0,
				-10.865966796875,
				20.011150360107422
			]
		},
		{
			"name":"Circle"
		},
		{
			"mesh":1,
			"name":"Cube.004",
			"scale":[
				1.3758621215820312,
				1.3758621215820312,
				1.3758621215820312
			],
			"translation":[
				1.9353203773498535,
				17.539886474609375,
				-11.185545921325684
			]
		},
		{
			"mesh":2,
			"name":"Plane.004",
			"rotation":[
				0,
				0.23327146470546722,
				0,
				0.9724117517471313
			],
			"scale":[
				0.5278764367103577,
				0.5278764367103577,
				0.5278764367103577
			],
			"translation":[
				3.377990484237671,
				3.371638298034668,
				-7.190075874328613
			]
		},
		{
			"mesh":3,
			"name":"Cube",
			"rotation":[
				0,
				0.8642796874046326,
				0,
				0.5030115842819214
			],
			"scale":[
				18.537385940551758,
				0.6865990161895752,
				18.537385940551758
			],
			"translation":[
				-0.1277529001235962,
				15.605877876281738,
				0.21950626373291016
			]
		},
		{
			"mesh":4,
			"name":"Cube.001"
		},
		{
			"mesh":5,
			"name":"Temple",
			"rotation":[
				-0.9728534817695618,
				0,
				0.23142200708389282,
				7.38363780783402e-07
			],
			"scale":[
				0.7227867245674133,
				4.8376545906066895,
				4.3897905349731445
			],
			"translation":[
				-7.130061149597168,
				-0.47936248779296875,
				7.359784126281738
			]
		},
		{
			"mesh":6,
			"name":"Circle.001",
			"scale":[
				0.1558746099472046,
				0.3081299364566803,
				0.1558746099472046
			],
			"translation":[
				-1.3819828033447266,
				16.875080108642578,
				-11.185545921325684
			]
		},
		{
			"mesh":7,
			"name":"Plane",
			"rotation":[
				0.16321496665477753,
				0,
				0,
				0.986590564250946
			],
			"scale":[
				0.06227177754044533,
				0.06227177754044533,
				0.03553153574466705
			],
			"translation":[
				-1.378034234046936,
				21.413719177246094,
				-11.185545921325684
			]
		},
		{
			"mesh":8,
			"name":"Plane.001",
			"rotation":[
				-0.052381470799446106,
				0.29448986053466797,
				0.016168249770998955,
				0.9540809392929077
			],
			"scale":[
				0.06227177381515503,
				0.06227177754044533,
				0.03553153946995735
			],
			"translation":[
				-1.4203084707260132,
				21.197681427001953,
				-11.185545921325684
			]
		},
		{
			"mesh":9,
			"name":"Plane.002",
			"rotation":[
				0.03265313431620598,
				0.9531216621398926,
				-0.27944415807724,
				0.11137256026268005
			],
			"scale":[
				0.06227177381515503,
				0.06227177754044533,
				0.03553153574466705
			],
			"translation":[
				-1.240479826927185,
				21.50218963623047,
				-11.185545921325684
			]
		}
	],
	"animations":[
		{
			"channels":[
				{
					"sampler":0,
					"target":{
						"node":0,
						"path":"translation"
					}
				},
				{
					"sampler":1,
					"target":{
						"node":0,
						"path":"rotation"
					}
				},
				{
					"sampler":2,
					"target":{
						"node":0,
						"path":"scale"
					}
				}
			],
			"name":"Cube.003",
			"samplers":[
				{
					"input":38,
					"interpolation":"LINEAR",
					"output":39
				},
				{
					"input":38,
					"interpolation":"LINEAR",
					"output":40
				},
				{
					"input":38,
					"interpolation":"LINEAR",
					"output":41
				}
			]
		},
		{
			"channels":[
				{
					"sampler":0,
					"target":{
						"node":1,
						"path":"translation"
					}
				},
				{
					"sampler":1,
					"target":{
						"node":1,
						"path":"rotation"
					}
				},
				{
					"sampler":2,
					"target":{
						"node":1,
						"path":"scale"
					}
				}
			],
			"name":"Circle",
			"samplers":[
				{
					"input":38,
					"interpolation":"LINEAR",
					"output":42
				},
				{
					"input":38,
					"interpolation":"LINEAR",
					"output":43
				},
				{
					"input":38,
					"interpolation":"LINEAR",
					"output":44
				}
			]
		},
		{
			"channels":[
				{
					"sampler":0,
					"target":{
						"node":2,
						"path":"translation"
					}
				},
				{
					"sampler":1,
					"target":{
						"node":2,
						"path":"rotation"
					}
				},
				{
					"sampler":2,
					"target":{
						"node":2,
						"path":"scale"
					}
				}
			],
			"name":"Cube.004",
			"samplers":[
				{
					"input":38,
					"interpolation":"LINEAR",
					"output":45
				},
				{
					"input":38,
					"interpolation":"LINEAR",
					"output":46
				},
				{
					"input":38,
					"interpolation":"LINEAR",
					"output":47
				}
			]
		},
		{
			"channels":[
				{
					"sampler":0,
					"target":{
						"node":3,
						"path":"translation"
					}
				},
				{
					"sampler":1,
					"target":{
						"node":3,
						"path":"rotation"
					}
				},
				{
					"sampler":2,
					"target":{
						"node":3,
						"path":"scale"
					}
				}
			],
			"name":"Plane.004",
			"samplers":[
				{
					"input":38,
					"interpolation":"LINEAR",
					"output":48
				},
				{
					"input":38,
					"interpolation":"LINEAR",
					"output":49
				},
				{
					"input":38,
					"interpolation":"LINEAR",
					"output":50
				}
			]
		},
		{
			"channels":[
				{
					"sampler":0,
					"target":{
						"node":4,
						"path":"translation"
					}
				},
				{
					"sampler":1,
					"target":{
						"node":4,
						"path":"rotation"
					}
				},
				{
					"sampler":2,
					"target":{
						"node":4,
						"path":"scale"
					}
				}
			],
			"name":"Cube",
			"samplers":[
				{
					"input":38,
					"interpolation":"LINEAR",
					"output":51
				},
				{
					"input":38,
					"interpolation":"LINEAR",
					"output":52
				},
				{
					"input":38,
					"interpolation":"LINEAR",
					"output":53
				}
			]
		},
		{
			"channels":[
				{
					"sampler":0,
					"target":{
						"node":5,
						"path":"translation"
					}
				},
				{
					"sampler":1,
					"target":{
						"node":5,
						"path":"rotation"
					}
				},
				{
					"sampler":2,
					"target":{
						"node":5,
						"path":"scale"
					}
				}
			],
			"name":"Cube.001",
			"samplers":[
				{
					"input":38,
					"interpolation":"LINEAR",
					"output":54
				},
				{
					"input":38,
					"interpolation":"LINEAR",
					"output":55
				},
				{
					"input":38,
					"interpolation":"LINEAR",
					"output":56
				}
			]
		},
		{
			"channels":[
				{
					"sampler":0,
					"target":{
						"node":6,
						"path":"translation"
					}
				},
				{
					"sampler":1,
					"target":{
						"node":6,
						"path":"rotation"
					}
				},
				{
					"sampler":2,
					"target":{
						"node":6,
						"path":"scale"
					}
				}
			],
			"name":"Temple",
			"samplers":[
				{
					"input":38,
					"interpolation":"LINEAR",
					"output":57
				},
				{
					"input":38,
					"interpolation":"LINEAR",
					"output":58
				},
				{
					"input":38,
					"interpolation":"LINEAR",
					"output":59
				}
			]
		},
		{
			"channels":[
				{
					"sampler":0,
					"target":{
						"node":7,
						"path":"translation"
					}
				},
				{
					"sampler":1,
					"target":{
						"node":7,
						"path":"rotation"
					}
				},
				{
					"sampler":2,
					"target":{
						"node":7,
						"path":"scale"
					}
				}
			],
			"name":"Circle.001",
			"samplers":[
				{
					"input":38,
					"interpolation":"LINEAR",
					"output":60
				},
				{
					"input":38,
					"interpolation":"LINEAR",
					"output":61
				},
				{
					"input":38,
					"interpolation":"LINEAR",
					"output":62
				}
			]
		},
		{
			"channels":[
				{
					"sampler":0,
					"target":{
						"node":8,
						"path":"translation"
					}
				},
				{
					"sampler":1,
					"target":{
						"node":8,
						"path":"rotation"
					}
				},
				{
					"sampler":2,
					"target":{
						"node":8,
						"path":"scale"
					}
				}
			],
			"name":"Plane",
			"samplers":[
				{
					"input":38,
					"interpolation":"LINEAR",
					"output":63
				},
				{
					"input":38,
					"interpolation":"LINEAR",
					"output":64
				},
				{
					"input":38,
					"interpolation":"LINEAR",
					"output":65
				}
			]
		},
		{
			"channels":[
				{
					"sampler":0,
					"target":{
						"node":9,
						"path":"translation"
					}
				},
				{
					"sampler":1,
					"target":{
						"node":9,
						"path":"rotation"
					}
				},
				{
					"sampler":2,
					"target":{
						"node":9,
						"path":"scale"
					}
				}
			],
			"name":"Plane.001",
			"samplers":[
				{
					"input":38,
					"interpolation":"LINEAR",
					"output":66
				},
				{
					"input":38,
					"interpolation":"LINEAR",
					"output":67
				},
				{
					"input":38,
					"interpolation":"LINEAR",
					"output":68
				}
			]
		},
		{
			"channels":[
				{
					"sampler":0,
					"target":{
						"node":10,
						"path":"translation"
					}
				},
				{
					"sampler":1,
					"target":{
						"node":10,
						"path":"rotation"
					}
				},
				{
					"sampler":2,
					"target":{
						"node":10,
						"path":"scale"
					}
				}
			],
			"name":"Plane.002",
			"samplers":[
				{
					"input":38,
					"interpolation":"LINEAR",
					"output":69
				},
				{
					"input":38,
					"interpolation":"LINEAR",
					"output":70
				},
				{
					"input":38,
					"interpolation":"LINEAR",
					"output":71
				}
			]
		}
	],
	"meshes":[
		{
			"name":"Cube.008",
			"primitives":[
				{
					"attributes":{
						"POSITION":0,
						"TEXCOORD_0":1,
						"NORMAL":2
					},
					"indices":3
				}
			]
		},
		{
			"name":"Cube",
			"primitives":[
				{
					"attributes":{
						"POSITION":4,
						"TEXCOORD_0":5,
						"NORMAL":6
					},
					"indices":7
				}
			]
		},
		{
			"name":"Plane.006",
			"primitives":[
				{
					"attributes":{
						"POSITION":8,
						"TEXCOORD_0":9,
						"NORMAL":10
					},
					"indices":11
				}
			]
		},
		{
			"name":"Cube.001",
			"primitives":[
				{
					"attributes":{
						"POSITION":12,
						"TEXCOORD_0":13,
						"NORMAL":14
					},
					"indices":15
				}
			]
		},
		{
			"name":"Cube.004",
			"primitives":[
				{
					"attributes":{
						"POSITION":16,
						"TEXCOORD_0":17,
						"NORMAL":18
					},
					"indices":19
				}
			]
		},
		{
			"name":"Cube.005",
			"primitives":[
				{
					"attributes":{
						"POSITION":20,
						"TEXCOORD_0":21,
						"NORMAL":22
					},
					"indices":23
				}
			]
		},
		{
			"name":"Circle.001",
			"primitives":[
				{
					"attributes":{
						"POSITION":24,
						"TEXCOORD_0":25,
						"NORMAL":26
					},
					"indices":27
				}
			]
		},
		{
			"name":"Plane",
			"primitives":[
				{
					"attributes":{
						"POSITION":28,
						"TEXCOORD_0":29,
						"NORMAL":30
					},
					"indices":31
				}
			]
		},
		{
			"name":"Plane.001",
			"primitives":[
				{
					"attributes":{
						"POSITION":32,
						"TEXCOORD_0":33,
						"NORMAL":34
					},
					"indices":31
				}
			]
		},
		{
			"name":"Plane.002",
			"primitives":[
				{
					"attributes":{
						"POSITION":35,
						"TEXCOORD_0":36,
						"NORMAL":37
					},
					"indices":31
				}
			]
		}
	],
	"accessors":[
		{
			"bufferView":0,
			"componentType":5126,
			"count":32,
			"max":[
				2.666194438934326,
				1,
				2.666194438934326
			],
			"min":[
				-2.666194438934326,
				-1,
				-2.666194438934326
			],
			"type":"VEC3"
		},
		{
			"bufferView":1,
			"componentType":5126,
			"count":32,
			"type":"VEC2"
		},
		{
			"bufferView":2,
			"componentType":5126,
			"count":32,
			"type":"VEC3"
		},
		{
			"bufferView":3,
			"componentType":5123,
			"count":42,
			"type":"SCALAR"
		},
		{
			"bufferView":4,
			"componentType":5126,
			"count":42,
			"max":[
				1.0826830863952637,
				1.4983378648757935,
				1
			],
			"min":[
				-1,
				-1,
				-1
			],
			"type":"VEC3"
		},
		{
			"bufferView":5,
			"componentType":5126,
			"count":42,
			"type":"VEC2"
		},
		{
			"bufferView":6,
			"componentType":5126,
			"count":42,
			"type":"VEC3"
		},
		{
			"bufferView":7,
			"componentType":5123,
			"count":66,
			"type":"SCALAR"
		},
		{
			"bufferView":8,
			"componentType":5126,
			"count":509,
			"max":[
				1,
				6.240976333618164,
				32.40150451660156
			],
			"min":[
				-31.39407730102539,
				-30.127418518066406,
				-1
			],
			"type":"VEC3"
		},
		{
			"bufferView":9,
			"componentType":5126,
			"count":509,
			"type":"VEC2"
		},
		{
			"bufferView":10,
			"componentType":5126,
			"count":509,
			"type":"VEC3"
		},
		{
			"bufferView":11,
			"componentType":5123,
			"count":942,
			"type":"SCALAR"
		},
		{
			"bufferView":12,
			"componentType":5126,
			"count":280,
			"max":[
				0.951052188873291,
				1.8790605068206787,
				1.1149486303329468
			],
			"min":[
				-1.1026910543441772,
				-2.05316162109375,
				-1.0917704105377197
			],
			"type":"VEC3"
		},
		{
			"bufferView":13,
			"componentType":5126,
			"count":280,
			"type":"VEC2"
		},
		{
			"bufferView":14,
			"componentType":5126,
			"count":280,
			"type":"VEC3"
		},
		{
			"bufferView":15,
			"componentType":5123,
			"count":420,
			"type":"SCALAR"
		},
		{
			"bufferView":16,
			"componentType":5126,
			"count":156,
			"max":[
				19.56998062133789,
				16.0848445892334,
				22.293563842773438
			],
			"min":[
				-21.6324405670166,
				-13.470688819885254,
				-20.120969772338867
			],
			"type":"VEC3"
		},
		{
			"bufferView":17,
			"componentType":5126,
			"count":156,
			"type":"VEC2"
		},
		{
			"bufferView":18,
			"componentType":5126,
			"count":156,
			"type":"VEC3"
		},
		{
			"bufferView":19,
			"componentType":5123,
			"count":804,
			"type":"SCALAR"
		},
		{
			"bufferView":20,
			"componentType":5126,
			"count":74,
			"max":[
				1,
				0.9746630787849426,
				1
			],
			"min":[
				-1,
				-1,
				-1
			],
			"type":"VEC3"
		},
		{
			"bufferView":21,
			"componentType":5126,
			"count":74,
			"type":"VEC2"
		},
		{
			"bufferView":22,
			"componentType":5126,
			"count":74,
			"type":"VEC3"
		},
		{
			"bufferView":23,
			"componentType":5123,
			"count":138,
			"type":"SCALAR"
		},
		{
			"bufferView":24,
			"componentType":5126,
			"count":156,
			"max":[
				2.517636775970459,
				22.041946411132812,
				1
			],
			"min":[
				-1,
				0,
				-1.8971264362335205
			],
			"type":"VEC3"
		},
		{
			"bufferView":25,
			"componentType":5126,
			"count":156,
			"type":"VEC2"
		},
		{
			"bufferView":26,
			"componentType":5126,
			"count":156,
			"type":"VEC3"
		},
		{
			"bufferView":27,
			"componentType":5123,
			"count":246,
			"type":"SCALAR"
		},
		{
			"bufferView":28,
			"componentType":5126,
			"count":23,
			"max":[
				1,
				1.9811697006225586,
				4.307785987854004
			],
			"min":[
				-9.172657012939453,
				-0.08064574003219604,
				-10.381636619567871
			],
			"type":"VEC3"
		},
		{
			"bufferView":29,
			"componentType":5126,
			"count":23,
			"type":"VEC2"
		},
		{
			"bufferView":30,
			"componentType":5126,
			"count":23,
			"type":"VEC3"
		},
		{
			"bufferView":31,
			"componentType":5123,
			"count":33,
			"type":"SCALAR"
		},
		{
			"bufferView":32,
			"componentType":5126,
			"count":23,
			"max":[
				1,
				1.9811697006225586,
				4.307785987854004
			],
			"min":[
				-9.172657012939453,
				-0.08064574003219604,
				-10.381636619567871
			],
			"type":"VEC3"
		},
		{
			"bufferView":33,
			"componentType":5126,
			"count":23,
			"type":"VEC2"
		},
		{
			"bufferView":34,
			"componentType":5126,
			"count":23,
			"type":"VEC3"
		},
		{
			"bufferView":35,
			"componentType":5126,
			"count":23,
			"max":[
				1,
				1.9811697006225586,
				4.307785987854004
			],
			"min":[
				-9.172657012939453,
				-0.08064574003219604,
				-10.381636619567871
			],
			"type":"VEC3"
		},
		{
			"bufferView":36,
			"componentType":5126,
			"count":23,
			"type":"VEC2"
		},
		{
			"bufferView":37,
			"componentType":5126,
			"count":23,
			"type":"VEC3"
		},
		{
			"bufferView":38,
			"componentType":5126,
			"count":81,
			"max":[
				3.3333333333333335
			],
			"min":[
				0
			],
			"type":"SCALAR"
		},
		{
			"bufferView":39,
			"componentType":5126,
			"count":81,
			"type":"VEC3"
		},
		{
			"bufferView":40,
			"componentType":5126,
			"count":81,
			"type":"VEC4"
		},
		{
			"bufferView":41,
			"componentType":5126,
			"count":81,
			"type":"VEC3"
		},
		{
			"bufferView":42,
			"componentType":5126,
			"count":81,
			"type":"VEC3"
		},
		{
			"bufferView":43,
			"componentType":5126,
			"count":81,
			"type":"VEC4"
		},
		{
			"bufferView":44,
			"componentType":5126,
			"count":81,
			"type":"VEC3"
		},
		{
			"bufferView":45,
			"componentType":5126,
			"count":81,
			"type":"VEC3"
		},
		{
			"bufferView":46,
			"componentType":5126,
			"count":81,
			"type":"VEC4"
		},
		{
			"bufferView":47,
			"componentType":5126,
			"count":81,
			"type":"VEC3"
		},
		{
			"bufferView":48,
			"componentType":5126,
			"count":81,
			"type":"VEC3"
		},
		{
			"bufferView":49,
			"componentType":5126,
			"count":81,
			"type":"VEC4"
		},
		{
			"bufferView":50,
			"componentType":5126,
			"count":81,
			"type":"VEC3"
		},
		{
			"bufferView":51,
			"componentType":5126,
			"count":81,
			"type":"VEC3"
		},
		{
			"bufferView":52,
			"componentType":5126,
			"count":81,
			"type":"VEC4"
		},
		{
			"bufferView":53,
			"componentType":5126,
			"count":81,
			"type":"VEC3"
		},
		{
			"bufferView":54,
			"componentType":5126,
			"count":81,
			"type":"VEC3"
		},
		{
			"bufferView":55,
			"componentType":5126,
			"count":81,
			"type":"VEC4"
		},
		{
			"bufferView":56,
			"componentType":5126,
			"count":81,
			"type":"VEC3"
		},
		{
			"bufferView":57,
			"componentType":5126,
			"count":81,
			"type":"VEC3"
		},
		{
			"bufferView":58,
			"componentType":5126,
			"count":81,
			"type":"VEC4"
		},
		{
			"bufferView":59,
			"componentType":5126,
			"count":81,
			"type":"VEC3"
		},
		{
			"bufferView":60,
			"componentType":5126,
			"count":81,
			"type":"VEC3"
		},
		{
			"bufferView":61,
			"componentType":5126,
			"count":81,
			"type":"VEC4"
		},
		{
			"bufferView":62,
			"componentType":5126,
			"count":81,
			"type":"VEC3"
		},
		{
			"bufferView":63,
			"componentType":5126,
			"count":81,
			"type":"VEC3"
		},
		{
			"bufferView":64,
			"componentType":5126,
			"count":81,
			"type":"VEC4"
		},
		{
			"bufferView":65,
			"componentType":5126,
			"count":81,
			"type":"VEC3"
		},
		{
			"bufferView":66,
			"componentType":5126,
			"count":81,
			"type":"VEC3"
		},
		{
			"bufferView":67,
			"componentType":5126,
			"count":81,
			"type":"VEC4"
		},
		{
			"bufferView":68,
			"componentType":5126,
			"count":81,
			"type":"VEC3"
		},
		{
			"bufferView":69,
			"componentType":5126,
			"count":81,
			"type":"VEC3"
		},
		{
			"bufferView":70,
			"componentType":5126,
			"count":81,
			"type":"VEC4"
		},
		{
			"bufferView":71,
			"componentType":5126,
			"count":81,
			"type":"VEC3"
		}
	],
	"bufferViews":[
		{
			"buffer":0,
			"byteLength":384,
			"byteOffset":0,
			"target":34962
		},
		{
			"buffer":0,
			"byteLength":256,
			"byteOffset":384,
			"target":34962
		},
		{
			"buffer":0,
			"byteLength":384,
			"byteOffset":640,
			"target":34962
		},
		{
			"buffer":0,
			"byteLength":84,
			"byteOffset":1024,
			"target":34963
		},
		{
			"buffer":0,
			"byteLength":504,
			"byteOffset":1108,
			"target":34962
		},
		{
			"buffer":0,
			"byteLength":336,
			"byteOffset":1612,
			"target":34962
		},
		{
			"buffer":0,
			"byteLength":504,
			"byteOffset":1948,
			"target":34962
		},
		{
			"buffer":0,
			"byteLength":132,
			"byteOffset":2452,
			"target":34963
		},
		{
			"buffer":0,
			"byteLength":6108,
			"byteOffset":2584,
			"target":34962
		},
		{
			"buffer":0,
			"byteLength":4072,
			"byteOffset":8692,
			"target":34962
		},
		{
			"buffer":0,
			"byteLength":6108,
			"byteOffset":12764,
			"target":34962
		},
		{
			"buffer":0,
			"byteLength":1884,
			"byteOffset":18872,
			"target":34963
		},
		{
			"buffer":0,
			"byteLength":3360,
			"byteOffset":20756,
			"target":34962
		},
		{
			"buffer":0,
			"byteLength":2240,
			"byteOffset":24116,
			"target":34962
		},
		{
			"buffer":0,
			"byteLength":3360,
			"byteOffset":26356,
			"target":34962
		},
		{
			"buffer":0,
			"byteLength":840,
			"byteOffset":29716,
			"target":34963
		},
		{
			"buffer":0,
			"byteLength":1872,
			"byteOffset":30556,
			"target":34962
		},
		{
			"buffer":0,
			"byteLength":1248,
			"byteOffset":32428,
			"target":34962
		},
		{
			"buffer":0,
			"byteLength":1872,
			"byteOffset":33676,
			"target":34962
		},
		{
			"buffer":0,
			"byteLength":1608,
			"byteOffset":35548,
			"target":34963
		},
		{
			"buffer":0,
			"byteLength":888,
			"byteOffset":37156,
			"target":34962
		},
		{
			"buffer":0,
			"byteLength":592,
			"byteOffset":38044,
			"target":34962
		},
		{
			"buffer":0,
			"byteLength":888,
			"byteOffset":38636,
			"target":34962
		},
		{
			"buffer":0,
			"byteLength":276,
			"byteOffset":39524,
			"target":34963
		},
		{
			"buffer":0,
			"byteLength":1872,
			"byteOffset":39800,
			"target":34962
		},
		{
			"buffer":0,
			"byteLength":1248,
			"byteOffset":41672,
			"target":34962
		},
		{
			"buffer":0,
			"byteLength":1872,
			"byteOffset":42920,
			"target":34962
		},
		{
			"buffer":0,
			"byteLength":492,
			"byteOffset":44792,
			"target":34963
		},
		{
			"buffer":0,
			"byteLength":276,
			"byteOffset":45284,
			"target":34962
		},
		{
			"buffer":0,
			"byteLength":184,
			"byteOffset":45560,
			"target":34962
		},
		{
			"buffer":0,
			"byteLength":276,
			"byteOffset":45744,
			"target":34962
		},
		{
			"buffer":0,
			"byteLength":66,
			"byteOffset":46020,
			"target":34963
		},
		{
			"buffer":0,
			"byteLength":276,
			"byteOffset":46088,
			"target":34962
		},
		{
			"buffer":0,
			"byteLength":184,
			"byteOffset":46364,
			"target":34962
		},
		{
			"buffer":0,
			"byteLength":276,
			"byteOffset":46548,
			"target":34962
		},
		{
			"buffer":0,
			"byteLength":276,
			"byteOffset":46824,
			"target":34962
		},
		{
			"buffer":0,
			"byteLength":184,
			"byteOffset":47100,
			"target":34962
		},
		{
			"buffer":0,
			"byteLength":276,
			"byteOffset":47284,
			"target":34962
		},
		{
			"buffer":0,
			"byteLength":324,
			"byteOffset":47560
		},
		{
			"buffer":0,
			"byteLength":972,
			"byteOffset":47884
		},
		{
			"buffer":0,
			"byteLength":1296,
			"byteOffset":48856
		},
		{
			"buffer":0,
			"byteLength":972,
			"byteOffset":50152
		},
		{
			"buffer":0,
			"byteLength":972,
			"byteOffset":51124
		},
		{
			"buffer":0,
			"byteLength":1296,
			"byteOffset":52096
		},
		{
			"buffer":0,
			"byteLength":972,
			"byteOffset":53392
		},
		{
			"buffer":0,
			"byteLength":972,
			"byteOffset":54364
		},
		{
			"buffer":0,
			"byteLength":1296,
			"byteOffset":55336
		},
		{
			"buffer":0,
			"byteLength":972,
			"byteOffset":56632
		},
		{
			"buffer":0,
			"byteLength":972,
			"byteOffset":57604
		},
		{
			"buffer":0,
			"byteLength":1296,
			"byteOffset":58576
		},
		{
			"buffer":0,
			"byteLength":972,
			"byteOffset":59872
		},
		{
			"buffer":0,
			"byteLength":972,
			"byteOffset":60844
		},
		{
			"buffer":0,
			"byteLength":1296,
			"byteOffset":61816
		},
		{
			"buffer":0,
			"byteLength":972,
			"byteOffset":63112
		},
		{
			"buffer":0,
			"byteLength":972,
			"byteOffset":64084
		},
		{
			"buffer":0,
			"byteLength":1296,
			"byteOffset":65056
		},
		{
			"buffer":0,
			"byteLength":972,
			"byteOffset":66352
		},
		{
			"buffer":0,
			"byteLength":972,
			"byteOffset":67324
		},
		{
			"buffer":0,
			"byteLength":1296,
			"byteOffset":68296
		},
		{
			"buffer":0,
			"byteLength":972,
			"byteOffset":69592
		},
		{
			"buffer":0,
			"byteLength":972,
			"byteOffset":70564
		},
		{
			"buffer":0,
			"byteLength":1296,
			"byteOffset":71536
		},
		{
			"buffer":0,
			"byteLength":972,
			"byteOffset":72832
		},
		{
			"buffer":0,
			"byteLength":972,
			"byteOffset":73804
		},
		{
			"buffer":0,
			"byteLength":1296,
			"byteOffset":74776
		},
		{
			"buffer":0,
			"byteLength":972,
			"byteOffset":76072
		},
		{
			"buffer":0,
			"byteLength":972,
			"byteOffset":77044
		},
		{
			"buffer":0,
			"byteLength":1296,
			"byteOffset":78016
		},
		{
			"buffer":0,
			"byteLength":972,
			"byteOffset":79312
		},
		{
			"buffer":0,
			"byteLength":972,
			"byteOffset":80284
		},
		{
			"buffer":0,
			"byteLength":1296,
			"byteOffset":81256
		},
		{
			"buffer":0,
			"byteLength":972,
			"byteOffset":82552
		}
	],
	"buffers":[
		{
			"byteLength":83524,
			"uri":"data:application/octet-stream;base64,"
		}
	]
}
