{
	"asset":{
		"generator":"Khronos glTF Blender I/O v3.5.30",
		"version":"2.0"
	},
	"scene":0,
	"scenes":[
		{
			"name":"Scene",
			"nodes":[
				0,
				1,
				2
			]
		}
	],
	"nodes":[
		{
			"mesh":0,
			"name":"Cube",
			"translation":[
				0,
				3.4721438884735107,
				0
			]
		},
		{
			"name":"Lattice",
			"scale":[
				4.269357204437256,
				4.269357204437256,
				4.269357204437256
			],
			"translation":[
				0,
				2.6653475761413574,
				0
			]
		},
		{
			"name":"Empty",
			"translation":[
				0,
				3.2752559185028076,
				-1.829724669456482
			]
		}
	],
	"animations":[
		{
			"channels":[
				{
					"sampler":0,
					"target":{
						"node":2,
						"path":"translation"
					}
				},
				{
					"sampler":1,
					"target":{
						"node":2,
						"path":"rotation"
					}
				},
				{
					"sampler":2,
					"target":{
						"node":2,
						"path":"scale"
					}
				}
			],
			"name":"EmptyAction",
			"samplers":[
				{
					"input":4,
					"interpolation":"LINEAR",
					"output":5
				},
				{
					"input":4,
					"interpolation":"LINEAR",
					"output":6
				},
				{
					"input":7,
					"interpolation":"STEP",
					"output":8
				}
			]
		}
	],
	"meshes":[
		{
			"name":"Cube.001",
			"primitives":[
				{
					"attributes":{
						"POSITION":0,
						"TEXCOORD_0":1,
						"NORMAL":2
					},
					"indices":3
				}
			]
		}
	],
	"accessors":[
		{
			"bufferView":0,
			"componentType":5126,
			"count":950,
			"max":[
				1,
				1,
				2.1825215816497803
			],
			"min":[
				-1,
				-3.312598466873169,
				-2.1825215816497803
			],
			"type":"VEC3"
		},
		{
			"bufferView":1,
			"componentType":5126,
			"count":950,
			"type":"VEC2"
		},
		{
			"bufferView":2,
			"componentType":5126,
			"count":950,
			"type":"VEC3"
		},
		{
			"bufferView":3,
			"componentType":5123,
			"count":4032,
			"type":"SCALAR"
		},
		{
			"bufferView":4,
			"componentType":5126,
			"count":40,
			"max":[
				1.6666666666666667
			],
			"min":[
				0.041666666666666664
			],
			"type":"SCALAR"
		},
		{
			"bufferView":5,
			"componentType":5126,
			"count":40,
			"type":"VEC3"
		},
		{
			"bufferView":6,
			"componentType":5126,
			"count":40,
			"type":"VEC4"
		},
		{
			"bufferView":7,
			"componentType":5126,
			"count":1,
			"max":[
				1.6666666666666667
			],
			"min":[
				1.6666666666666667
			],
			"type":"SCALAR"
		},
		{
			"bufferView":8,
			"componentType":5126,
			"count":1,
			"type":"VEC3"
		}
	],
	"bufferViews":[
		{
			"buffer":0,
			"byteLength":11400,
			"byteOffset":0,
			"target":34962
		},
		{
			"buffer":0,
			"byteLength":7600,
			"byteOffset":11400,
			"target":34962
		},
		{
			"buffer":0,
			"byteLength":11400,
			"byteOffset":19000,
			"target":34962
		},
		{
			"buffer":0,
			"byteLength":8064,
			"byteOffset":30400,
			"target":34963
		},
		{
			"buffer":0,
			"byteLength":160,
			"byteOffset":38464
		},
		{
			"buffer":0,
			"byteLength":480,
			"byteOffset":38624
		},
		{
			"buffer":0,
			"byteLength":640,
			"byteOffset":39104
		},
		{
			"buffer":0,
			"byteLength":4,
			"byteOffset":39744
		},
		{
			"buffer":0,
			"byteLength":12,
			"byteOffset":39748
		}
	],
	"buffers":[
		{
			"byteLength":39760,
			"uri":"data:application/octet-stream;base64,"
		}
	]
}
