{
	"asset":{
		"generator":"Khronos glTF Blender I/O v3.5.30",
		"version":"2.0"
	},
	"scene":0,
	"scenes":[
		{
			"name":"Scene",
			"nodes":[
				0,
				1
			]
		}
	],
	"nodes":[
		{
			"mesh":0,
			"name":"Cube.001",
			"scale":[
				1.0685559511184692,
				1.0685559511184692,
				1.0685559511184692
			],
			"translation":[
				0,
				0,
				13.981473922729492
			]
		},
		{
			"mesh":1,
			"name":"Cube.002",
			"scale":[
				6.197508335113525,
				6.197508335113525,
				6.197508335113525
			],
			"translation":[
				0,
				18.409290313720703,
				9.332033157348633
			]
		}
	],
	"meshes":[
		{
			"name":"Cube",
			"primitives":[
				{
					"attributes":{
						"POSITION":0,
						"TEXCOORD_0":1,
						"NORMAL":2
					},
					"indices":3
				}
			]
		},
		{
			"name":"Cube.002",
			"primitives":[
				{
					"attributes":{
						"POSITION":4,
						"TEXCOORD_0":5,
						"NORMAL":6
					},
					"indices":7
				}
			]
		}
	],
	"accessors":[
		{
			"bufferView":0,
			"componentType":5126,
			"count":394,
			"max":[
				8.191213607788086,
				16.215600967407227,
				11.696853637695312
			],
			"min":[
				-5.6834797859191895,
				-1,
				-5.5121750831604
			],
			"type":"VEC3"
		},
		{
			"bufferView":1,
			"componentType":5126,
			"count":394,
			"type":"VEC2"
		},
		{
			"bufferView":2,
			"componentType":5126,
			"count":394,
			"type":"VEC3"
		},
		{
			"bufferView":3,
			"componentType":5123,
			"count":618,
			"type":"SCALAR"
		},
		{
			"bufferView":4,
			"componentType":5126,
			"count":2432,
			"max":[
				1.9237732887268066,
				1.6334575414657593,
				3.521341562271118
			],
			"min":[
				-2.1375997066497803,
				-0.9679862260818481,
				-0.7481827139854431
			],
			"type":"VEC3"
		},
		{
			"bufferView":5,
			"componentType":5126,
			"count":2432,
			"type":"VEC2"
		},
		{
			"bufferView":6,
			"componentType":5126,
			"count":2432,
			"type":"VEC3"
		},
		{
			"bufferView":7,
			"componentType":5123,
			"count":3648,
			"type":"SCALAR"
		}
	],
	"bufferViews":[
		{
			"buffer":0,
			"byteLength":4728,
			"byteOffset":0,
			"target":34962
		},
		{
			"buffer":0,
			"byteLength":3152,
			"byteOffset":4728,
			"target":34962
		},
		{
			"buffer":0,
			"byteLength":4728,
			"byteOffset":7880,
			"target":34962
		},
		{
			"buffer":0,
			"byteLength":1236,
			"byteOffset":12608,
			"target":34963
		},
		{
			"buffer":0,
			"byteLength":29184,
			"byteOffset":13844,
			"target":34962
		},
		{
			"buffer":0,
			"byteLength":19456,
			"byteOffset":43028,
			"target":34962
		},
		{
			"buffer":0,
			"byteLength":29184,
			"byteOffset":62484,
			"target":34962
		},
		{
			"buffer":0,
			"byteLength":7296,
			"byteOffset":91668,
			"target":34963
		}
	],
	"buffers":[
		{
			"byteLength":98964,
			"uri":"data:application/octet-stream;base64,"
		}
	]
}
