{
	"asset":{
		"generator":"Khronos glTF Blender I/O v3.5.30",
		"version":"2.0"
	},
	"scene":1,
	"scenes":[
		{
			"name":"Version 1 du temple"
		},
		{
			"name":"Version 2 du temple",
			"nodes":[
				0
			]
		}
	],
	"nodes":[
		{
			"mesh":0,
			"name":"Cube.014_Baked_Baked",
			"rotation":[
				0,
				-0.18872810900211334,
				0,
				0.982029378414154
			],
			"scale":[
				5.49732780456543,
				13.745473861694336,
				6.091677665710449
			],
			"translation":[
				-58.42890167236328,
				63.40607833862305,
				384.5281677246094
			]
		}
	],
	"meshes":[
		{
			"name":"Cube.020",
			"primitives":[
				{
					"attributes":{
						"POSITION":0,
						"TEXCOORD_0":1,
						"NORMAL":2
					},
					"indices":3
				}
			]
		}
	],
	"accessors":[
		{
			"bufferView":0,
			"componentType":5126,
			"count":34,
			"max":[
				1,
				1,
				1.6724164485931396
			],
			"min":[
				-1,
				-1,
				-1
			],
			"type":"VEC3"
		},
		{
			"bufferView":1,
			"componentType":5126,
			"count":34,
			"type":"VEC2"
		},
		{
			"bufferView":2,
			"componentType":5126,
			"count":34,
			"type":"VEC3"
		},
		{
			"bufferView":3,
			"componentType":5123,
			"count":60,
			"type":"SCALAR"
		}
	],
	"bufferViews":[
		{
			"buffer":0,
			"byteLength":408,
			"byteOffset":0,
			"target":34962
		},
		{
			"buffer":0,
			"byteLength":272,
			"byteOffset":408,
			"target":34962
		},
		{
			"buffer":0,
			"byteLength":408,
			"byteOffset":680,
			"target":34962
		},
		{
			"buffer":0,
			"byteLength":120,
			"byteOffset":1088,
			"target":34963
		}
	],
	"buffers":[
		{
			"byteLength":1208,
			"uri":"data:application/octet-stream;base64,"
		}
	]
}
