{
	"asset":{
		"generator":"Khronos glTF Blender I/O v3.5.30",
		"version":"2.0"
	},
	"scene":0,
	"scenes":[
		{
			"name":"Scene",
			"nodes":[
				0
			]
		}
	],
	"nodes":[
		{
			"mesh":0,
			"name":"Cube_Baked"
		}
	],
	"materials":[
		{
			"alphaMode":"BLEND",
			"doubleSided":true,
			"name":"Cube_Baked",
			"normalTexture":{
				"index":0
			},
			"pbrMetallicRoughness":{
				"baseColorTexture":{
					"index":1
				},
				"metallicFactor":0,
				"metallicRoughnessTexture":{
					"index":2
				}
			}
		}
	],
	"meshes":[
		{
			"name":"Cube.003",
			"primitives":[
				{
					"attributes":{
						"POSITION":0,
						"TEXCOORD_0":1,
						"NORMAL":2
					},
					"indices":3,
					"material":0
				}
			]
		}
	],
	"textures":[
		{
			"sampler":0,
			"source":0
		},
		{
			"sampler":0,
			"source":1
		},
		{
			"sampler":0,
			"source":2
		}
	],
	"images":[
		{
			"bufferView":4,
			"mimeType":"image/png",
			"name":"Cube_Bake1_PBR_Normal"
		},
		{
			"bufferView":5,
			"mimeType":"image/png",
			"name":"Cube_Bake1_PBR_Diffuse"
		},
		{
			"bufferView":6,
			"mimeType":"image/png",
			"name":"Cube_Bake1_PBR_Roughness"
		}
	],
	"accessors":[
		{
			"bufferView":0,
			"componentType":5126,
			"count":21310,
			"max":[
				1.0287998914718628,
				1.0289090871810913,
				1.028928518295288
			],
			"min":[
				-1.0099999904632568,
				-1.0243333578109741,
				-1.0245383977890015
			],
			"type":"VEC3"
		},
		{
			"bufferView":1,
			"componentType":5126,
			"count":21310,
			"type":"VEC2"
		},
		{
			"bufferView":2,
			"componentType":5126,
			"count":21310,
			"type":"VEC3"
		},
		{
			"bufferView":3,
			"componentType":5123,
			"count":36276,
			"type":"SCALAR"
		}
	],
	"bufferViews":[
		{
			"buffer":0,
			"byteLength":255720,
			"byteOffset":0,
			"target":34962
		},
		{
			"buffer":0,
			"byteLength":170480,
			"byteOffset":255720,
			"target":34962
		},
		{
			"buffer":0,
			"byteLength":255720,
			"byteOffset":426200,
			"target":34962
		},
		{
			"buffer":0,
			"byteLength":72552,
			"byteOffset":681920,
			"target":34963
		},
		{
			"buffer":0,
			"byteLength":281594,
			"byteOffset":754472
		},
		{
			"buffer":0,
			"byteLength":150463,
			"byteOffset":1036068
		},
		{
			"buffer":0,
			"byteLength":111358,
			"byteOffset":1186532
		}
	],
	"samplers":[
		{
			"magFilter":9729,
			"minFilter":9987
		}
	],
	"buffers":[
		{
			"byteLength":1297892,
			"uri":"data:application/octet-stream;base64,"
		}
	]
}
