{
	"asset":{
		"generator":"Khronos glTF Blender I/O v3.5.30",
		"version":"2.0"
	},
	"scene":1,
	"scenes":[
		{
			"name":"Version 1 du temple"
		},
		{
			"name":"Version 2 du temple",
			"nodes":[
				0
			]
		}
	],
	"nodes":[
		{
			"mesh":0,
			"name":"Temple.003 bakes.001",
			"rotation":[
				0,
				0.1804770529270172,
				0,
				0.9835792183876038
			],
			"scale":[
				5.138645648956299,
				68.05799865722656,
				31.209177017211914
			]
		}
	],
	"meshes":[
		{
			"name":"Cube.018",
			"primitives":[
				{
					"attributes":{
						"POSITION":0,
						"TEXCOORD_0":1,
						"NORMAL":2
					},
					"indices":3
				}
			]
		}
	],
	"accessors":[
		{
			"bufferView":0,
			"componentType":5126,
			"count":232,
			"max":[
				0.026348114013671875,
				1.6854788064956665,
				0.33333349227905273
			],
			"min":[
				0.026348114013671875,
				5.960464477539063e-08,
				-0.33333301544189453
			],
			"type":"VEC3"
		},
		{
			"bufferView":1,
			"componentType":5126,
			"count":232,
			"type":"VEC2"
		},
		{
			"bufferView":2,
			"componentType":5126,
			"count":232,
			"type":"VEC3"
		},
		{
			"bufferView":3,
			"componentType":5123,
			"count":1206,
			"type":"SCALAR"
		}
	],
	"bufferViews":[
		{
			"buffer":0,
			"byteLength":2784,
			"byteOffset":0,
			"target":34962
		},
		{
			"buffer":0,
			"byteLength":1856,
			"byteOffset":2784,
			"target":34962
		},
		{
			"buffer":0,
			"byteLength":2784,
			"byteOffset":4640,
			"target":34962
		},
		{
			"buffer":0,
			"byteLength":2412,
			"byteOffset":7424,
			"target":34963
		}
	],
	"buffers":[
		{
			"byteLength":9836,
			"uri":"data:application/octet-stream;base64,"
		}
	]
}
