{
	"asset":{
		"generator":"Khronos glTF Blender I/O v3.5.30",
		"version":"2.0"
	},
	"extensionsUsed":[
		"KHR_materials_specular",
		"KHR_materials_ior"
	],
	"scene":0,
	"scenes":[
		{
			"name":"Scene",
			"nodes":[
				2
			]
		}
	],
	"nodes":[
		{
			"mesh":0,
			"name":"Circle.007",
			"rotation":[
				0.5532730221748352,
				-0.3543873131275177,
				0.5172156691551208,
				0.5484400391578674
			],
			"scale":[
				0.10045818239450455,
				0.07096561044454575,
				0.05237102881073952
			],
			"translation":[
				1.0380454063415527,
				-0.7022685408592224,
				-0.03701857849955559
			]
		},
		{
			"mesh":1,
			"name":"Cube.001",
			"rotation":[
				0.2925586700439453,
				0,
				0,
				0.9562475681304932
			],
			"scale":[
				3.3881609439849854,
				3.4746768474578857,
				4.4958977699279785
			],
			"translation":[
				-0.09719933569431305,
				-0.17689037322998047,
				-0.48871976137161255
			]
		},
		{
			"children":[
				0,
				1
			],
			"mesh":2,
			"name":"Sac",
			"scale":[
				1.2569377422332764,
				1.6759167909622192,
				0.8379583358764648
			],
			"translation":[
				-0.0009551346302032471,
				1.7341877222061157,
				0
			]
		}
	],
	"materials":[
		{
			"doubleSided":true,
			"emissiveFactor":[
				1,
				1,
				1
			],
			"emissiveTexture":{
				"index":0
			},
			"extensions":{
				"KHR_materials_specular":{
					"specularColorFactor":[
						0,
						0,
						0
					]
				},
				"KHR_materials_ior":{
					"ior":1.4500000476837158
				}
			},
			"name":"Material",
			"pbrMetallicRoughness":{
				"baseColorTexture":{
					"index":1
				},
				"metallicFactor":0
			}
		},
		{
			"doubleSided":true,
			"emissiveFactor":[
				1,
				1,
				1
			],
			"emissiveTexture":{
				"index":2
			},
			"extensions":{
				"KHR_materials_specular":{
					"specularColorFactor":[
						0.06467339847937902,
						0.06467339847937902,
						0.06467339847937902
					]
				},
				"KHR_materials_ior":{
					"ior":1.4500000476837158
				}
			},
			"name":"Material.005",
			"pbrMetallicRoughness":{
				"baseColorTexture":{
					"index":3
				},
				"metallicFactor":0.03409093618392944
			}
		},
		{
			"doubleSided":true,
			"emissiveFactor":[
				1,
				1,
				1
			],
			"emissiveTexture":{
				"index":4
			},
			"extensions":{
				"KHR_materials_specular":{
					"specularColorFactor":[
						0,
						0,
						0
					]
				},
				"KHR_materials_ior":{
					"ior":1.4500000476837158
				}
			},
			"name":"Material.004",
			"pbrMetallicRoughness":{
				"baseColorTexture":{
					"index":5
				},
				"metallicFactor":0
			}
		},
		{
			"doubleSided":true,
			"emissiveFactor":[
				1,
				1,
				1
			],
			"emissiveTexture":{
				"index":6
			},
			"extensions":{
				"KHR_materials_specular":{
					"specularColorFactor":[
						0.8804545094373367,
						0.8804545094373367,
						0.8804545094373367
					]
				},
				"KHR_materials_ior":{
					"ior":1.4500000476837158
				}
			},
			"name":"textur\u00e9",
			"normalTexture":{
				"index":7
			},
			"pbrMetallicRoughness":{
				"baseColorTexture":{
					"index":8
				},
				"metallicFactor":0,
				"roughnessFactor":0.8267326354980469
			}
		}
	],
	"meshes":[
		{
			"name":"Circle.010",
			"primitives":[
				{
					"attributes":{
						"POSITION":0,
						"TEXCOORD_0":1,
						"NORMAL":2
					},
					"indices":3,
					"material":0
				}
			]
		},
		{
			"name":"Cube.003",
			"primitives":[
				{
					"attributes":{
						"POSITION":4,
						"TEXCOORD_0":5,
						"NORMAL":6
					},
					"indices":7,
					"material":1
				}
			]
		},
		{
			"name":"Cube.002",
			"primitives":[
				{
					"attributes":{
						"POSITION":8,
						"TEXCOORD_0":9,
						"NORMAL":10
					},
					"indices":11,
					"material":2
				},
				{
					"attributes":{
						"POSITION":12,
						"TEXCOORD_0":13,
						"NORMAL":14
					},
					"indices":15,
					"material":3
				}
			]
		}
	],
	"textures":[
		{
			"sampler":0,
			"source":0
		},
		{
			"sampler":0,
			"source":0
		},
		{
			"sampler":0,
			"source":1
		},
		{
			"sampler":0,
			"source":1
		},
		{
			"sampler":0,
			"source":2
		},
		{
			"sampler":0,
			"source":2
		},
		{
			"sampler":0,
			"source":2
		},
		{
			"sampler":0,
			"source":3
		},
		{
			"sampler":0,
			"source":2
		}
	],
	"images":[
		{
			"bufferView":4,
			"mimeType":"image/png",
			"name":"Button"
		},
		{
			"bufferView":9,
			"mimeType":"image/png",
			"name":"Boucle"
		},
		{
			"bufferView":14,
			"mimeType":"image/png",
			"name":"Texture sac V2"
		},
		{
			"bufferView":19,
			"mimeType":"image/png",
			"name":"NorSAC"
		}
	],
	"accessors":[
		{
			"bufferView":0,
			"componentType":5126,
			"count":1116,
			"max":[
				1,
				17.385147094726562,
				1
			],
			"min":[
				-16.971294403076172,
				-0.22251850366592407,
				-5.722159385681152
			],
			"type":"VEC3"
		},
		{
			"bufferView":1,
			"componentType":5126,
			"count":1116,
			"type":"VEC2"
		},
		{
			"bufferView":2,
			"componentType":5126,
			"count":1116,
			"type":"VEC3"
		},
		{
			"bufferView":3,
			"componentType":5123,
			"count":4560,
			"type":"SCALAR"
		},
		{
			"bufferView":5,
			"componentType":5126,
			"count":144,
			"max":[
				0.027261309325695038,
				0.049644555896520615,
				0.0026294493582099676
			],
			"min":[
				-0.027261309325695038,
				-0.049644555896520615,
				-0.0026294493582099676
			],
			"type":"VEC3"
		},
		{
			"bufferView":6,
			"componentType":5126,
			"count":144,
			"type":"VEC2"
		},
		{
			"bufferView":7,
			"componentType":5126,
			"count":144,
			"type":"VEC3"
		},
		{
			"bufferView":8,
			"componentType":5123,
			"count":300,
			"type":"SCALAR"
		},
		{
			"bufferView":10,
			"componentType":5126,
			"count":1127,
			"max":[
				1.074216365814209,
				0.8480320572853088,
				1.8670586347579956
			],
			"min":[
				-1.1896893978118896,
				-1.011886715888977,
				-1.4080867767333984
			],
			"type":"VEC3"
		},
		{
			"bufferView":11,
			"componentType":5126,
			"count":1127,
			"type":"VEC2"
		},
		{
			"bufferView":12,
			"componentType":5126,
			"count":1127,
			"type":"VEC3"
		},
		{
			"bufferView":13,
			"componentType":5123,
			"count":3306,
			"type":"SCALAR"
		},
		{
			"bufferView":15,
			"componentType":5126,
			"count":497,
			"max":[
				1.0533568859100342,
				0.8480320572853088,
				1.8836971521377563
			],
			"min":[
				-1.1896893978118896,
				-1.011886715888977,
				-1.3364356756210327
			],
			"type":"VEC3"
		},
		{
			"bufferView":16,
			"componentType":5126,
			"count":497,
			"type":"VEC2"
		},
		{
			"bufferView":17,
			"componentType":5126,
			"count":497,
			"type":"VEC3"
		},
		{
			"bufferView":18,
			"componentType":5123,
			"count":1668,
			"type":"SCALAR"
		}
	],
	"bufferViews":[
		{
			"buffer":0,
			"byteLength":13392,
			"byteOffset":0,
			"target":34962
		},
		{
			"buffer":0,
			"byteLength":8928,
			"byteOffset":13392,
			"target":34962
		},
		{
			"buffer":0,
			"byteLength":13392,
			"byteOffset":22320,
			"target":34962
		},
		{
			"buffer":0,
			"byteLength":9120,
			"byteOffset":35712,
			"target":34963
		},
		{
			"buffer":0,
			"byteLength":409441,
			"byteOffset":44832
		},
		{
			"buffer":0,
			"byteLength":1728,
			"byteOffset":454276,
			"target":34962
		},
		{
			"buffer":0,
			"byteLength":1152,
			"byteOffset":456004,
			"target":34962
		},
		{
			"buffer":0,
			"byteLength":1728,
			"byteOffset":457156,
			"target":34962
		},
		{
			"buffer":0,
			"byteLength":600,
			"byteOffset":458884,
			"target":34963
		},
		{
			"buffer":0,
			"byteLength":192184,
			"byteOffset":459484
		},
		{
			"buffer":0,
			"byteLength":13524,
			"byteOffset":651668,
			"target":34962
		},
		{
			"buffer":0,
			"byteLength":9016,
			"byteOffset":665192,
			"target":34962
		},
		{
			"buffer":0,
			"byteLength":13524,
			"byteOffset":674208,
			"target":34962
		},
		{
			"buffer":0,
			"byteLength":6612,
			"byteOffset":687732,
			"target":34963
		},
		{
			"buffer":0,
			"byteLength":1648811,
			"byteOffset":694344
		},
		{
			"buffer":0,
			"byteLength":5964,
			"byteOffset":2343156,
			"target":34962
		},
		{
			"buffer":0,
			"byteLength":3976,
			"byteOffset":2349120,
			"target":34962
		},
		{
			"buffer":0,
			"byteLength":5964,
			"byteOffset":2353096,
			"target":34962
		},
		{
			"buffer":0,
			"byteLength":3336,
			"byteOffset":2359060,
			"target":34963
		},
		{
			"buffer":0,
			"byteLength":497003,
			"byteOffset":2362396
		}
	],
	"samplers":[
		{
			"magFilter":9729,
			"minFilter":9987
		}
	],
	"buffers":[
		{
			"byteLength":2859400,
			"uri":"data:application/octet-stream;base64,"
		}
	]
}
