{
	"asset":{
		"generator":"Khronos glTF Blender I/O v3.5.30",
		"version":"2.0"
	},
	"scene":1,
	"scenes":[
		{
			"name":"Version 1 du temple"
		},
		{
			"name":"Version 2 du temple",
			"nodes":[
				0
			]
		}
	],
	"nodes":[
		{
			"mesh":0,
			"name":"Circle.003",
			"rotation":[
				0,
				-0.23372375965118408,
				0,
				0.972303032875061
			],
			"scale":[
				-49.95686721801758,
				-94.07685852050781,
				-49.95686721801758
			]
		}
	],
	"animations":[
		{
			"channels":[
				{
					"sampler":0,
					"target":{
						"node":0,
						"path":"translation"
					}
				},
				{
					"sampler":1,
					"target":{
						"node":0,
						"path":"rotation"
					}
				},
				{
					"sampler":2,
					"target":{
						"node":0,
						"path":"scale"
					}
				}
			],
			"name":"Circle.003",
			"samplers":[
				{
					"input":4,
					"interpolation":"LINEAR",
					"output":5
				},
				{
					"input":4,
					"interpolation":"LINEAR",
					"output":6
				},
				{
					"input":4,
					"interpolation":"LINEAR",
					"output":7
				}
			]
		}
	],
	"meshes":[
		{
			"name":"Circle.005",
			"primitives":[
				{
					"attributes":{
						"POSITION":0,
						"TEXCOORD_0":1,
						"NORMAL":2
					},
					"indices":3
				}
			]
		}
	],
	"accessors":[
		{
			"bufferView":0,
			"componentType":5126,
			"count":384,
			"max":[
				1,
				0.07639837265014648,
				1
			],
			"min":[
				-1,
				-0.07639795541763306,
				-1
			],
			"type":"VEC3"
		},
		{
			"bufferView":1,
			"componentType":5126,
			"count":384,
			"type":"VEC2"
		},
		{
			"bufferView":2,
			"componentType":5126,
			"count":384,
			"type":"VEC3"
		},
		{
			"bufferView":3,
			"componentType":5123,
			"count":576,
			"type":"SCALAR"
		},
		{
			"bufferView":4,
			"componentType":5126,
			"count":102,
			"max":[
				4.208333333333333
			],
			"min":[
				0
			],
			"type":"SCALAR"
		},
		{
			"bufferView":5,
			"componentType":5126,
			"count":102,
			"type":"VEC3"
		},
		{
			"bufferView":6,
			"componentType":5126,
			"count":102,
			"type":"VEC4"
		},
		{
			"bufferView":7,
			"componentType":5126,
			"count":102,
			"type":"VEC3"
		}
	],
	"bufferViews":[
		{
			"buffer":0,
			"byteLength":4608,
			"byteOffset":0,
			"target":34962
		},
		{
			"buffer":0,
			"byteLength":3072,
			"byteOffset":4608,
			"target":34962
		},
		{
			"buffer":0,
			"byteLength":4608,
			"byteOffset":7680,
			"target":34962
		},
		{
			"buffer":0,
			"byteLength":1152,
			"byteOffset":12288,
			"target":34963
		},
		{
			"buffer":0,
			"byteLength":408,
			"byteOffset":13440
		},
		{
			"buffer":0,
			"byteLength":1224,
			"byteOffset":13848
		},
		{
			"buffer":0,
			"byteLength":1632,
			"byteOffset":15072
		},
		{
			"buffer":0,
			"byteLength":1224,
			"byteOffset":16704
		}
	],
	"buffers":[
		{
			"byteLength":17928,
			"uri":"data:application/octet-stream;base64,"
		}
	]
}
